<svg viewBox="0 0 900 220" xmlns="http://www.w3.org/2000/svg" font-family="Helvetica, Arial, sans-serif">
  <defs>
    <marker id="arrow2" markerWidth="10" markerHeight="10" refX="8" refY="3" orient="auto" markerUnits="strokeWidth">
      <path d="M0,0 L0,6 L9,3 z" fill="#4a5568"/>
    </marker>
  </defs>

  <rect x="20" y="70" width="140" height="80" rx="10" fill="#ebf8ff" stroke="#3182ce" stroke-width="2"/>
  <text x="90" y="105" font-size="14" font-weight="bold" text-anchor="middle" fill="#2c5282">Source</text>
  <text x="90" y="125" font-size="11" text-anchor="middle" fill="#4a5568">TCP Listener</text>

  <rect x="200" y="70" width="140" height="80" rx="10" fill="#fffbea" stroke="#d69e2e" stroke-width="2"/>
  <text x="270" y="100" font-size="14" font-weight="bold" text-anchor="middle" fill="#975a16">Filter</text>
  <text x="270" y="120" font-size="11" text-anchor="middle" fill="#4a5568">yes / no gate</text>
  <text x="270" y="136" font-size="11" text-anchor="middle" fill="#4a5568">no editing</text>

  <rect x="380" y="70" width="150" height="80" rx="10" fill="#f0fff4" stroke="#38a169" stroke-width="2"/>
  <text x="455" y="100" font-size="14" font-weight="bold" text-anchor="middle" fill="#276749">Transformer</text>
  <text x="455" y="120" font-size="11" text-anchor="middle" fill="#4a5568">defaults, reshapes,</text>
  <text x="455" y="136" font-size="11" text-anchor="middle" fill="#4a5568">flags for review</text>

  <rect x="570" y="30" width="150" height="60" rx="10" fill="#fff5f5" stroke="#e53e3e" stroke-width="2"/>
  <text x="645" y="55" font-size="13" font-weight="bold" text-anchor="middle" fill="#822727">Destination 1</text>
  <text x="645" y="73" font-size="11" text-anchor="middle" fill="#4a5568">TCP Sender (lab)</text>

  <rect x="570" y="130" width="150" height="60" rx="10" fill="#faf5ff" stroke="#805ad5" stroke-width="2"/>
  <text x="645" y="155" font-size="13" font-weight="bold" text-anchor="middle" fill="#553c9a">Exception_Log</text>
  <text x="645" y="173" font-size="11" text-anchor="middle" fill="#4a5568">JavaScript Writer</text>

  <line x1="160" y1="110" x2="195" y2="110" stroke="#4a5568" stroke-width="2" marker-end="url(#arrow2)"/>
  <line x1="340" y1="110" x2="375" y2="110" stroke="#4a5568" stroke-width="2" marker-end="url(#arrow2)"/>
  <line x1="530" y1="95" x2="565" y2="65" stroke="#4a5568" stroke-width="2" marker-end="url(#arrow2)"/>
  <line x1="530" y1="125" x2="565" y2="155" stroke="#4a5568" stroke-width="2" marker-end="url(#arrow2)"/>

  <text x="270" y="185" font-size="11" text-anchor="middle" fill="#a0aec0">reject blank PID-3</text>
  <text x="455" y="185" font-size="11" text-anchor="middle" fill="#a0aec0">normalize date, flag blank OBR-4</text>
</svg>
